<?xml version="1.0" encoding="utf-8"?>
<!-- Generator: Adobe Illustrator 19.2.1, SVG Export Plug-In . SVG Version: 6.00 Build 0)  -->
<svg version="1.1" id="Layer_1" xmlns="http://www.w3.org/2000/svg" xmlns:xlink="http://www.w3.org/1999/xlink" x="0px" y="0px"
	 viewBox="0 0 154 31.5" style="enable-background:new 0 0 154 31.5;" xml:space="preserve">
<style type="text/css">
	.st0{fill:#F9FBFC;}
</style>
<g>
	<g>
		<path class="st0" d="M15.3,17.4c3-0.5,5.2-2.7,5.2-7c0-4.2-2.4-7.2-9.8-7.2H2.1v25.1h6.4v-9.9c1.4,0,2,0.3,3,2.9l2.6,7h7.5
			c-0.8-1.9-3-6.5-3.8-8.2C17.2,18.8,16.1,17.6,15.3,17.4z M10.4,13.6H8.5V8.5h1.8c2,0,3,0.6,3,2.4C13.3,12.5,12.6,13.6,10.4,13.6z"
			/>
		<path class="st0" d="M37.8,4.7c-2-1.4-4.2-1.5-6-1.5H23v25.1h9.1c3.4,0,5.4-1.1,7-3c2.3-2.7,2.8-6.1,2.8-10
			C41.9,10.2,40.7,6.7,37.8,4.7z M31.6,22.9h-2.2V8.5h2c1.9,0,3.4,0.8,3.4,6.6C34.8,22,33.4,22.9,31.6,22.9z"/>
	</g>
	<g>
		<path class="st0" d="M62.4,14l-2.9-0.9c-2.7-0.8-3.7-1.8-3.7-3.6c0-2.3,1.7-3.7,4.5-3.7c2.1,0,3.6,0.5,5.9,1.9l1.5-2.4
			C65.6,3.8,62.9,3,60.2,3C55.3,3,52,5.9,52,10.2c0,3.5,2.1,5.3,5.9,6.4l2.6,0.8c2.8,0.8,4.1,2.2,4.1,4.2c0,2.7-2.1,4.3-5.4,4.3
			c-2.5,0-4.5-0.7-6.7-2.1l-1.4,2.7c2.4,1.5,5.1,2.2,8,2.2c6.5,0,9.4-4.2,9.4-7.7C68.5,17.2,65.7,15,62.4,14z"/>
		<path class="st0" d="M79.2,12.6l0.9-2.3h-4.4c0-1.8,0.2-4.1,0.3-5.4l-3.4,0.8c-0.2,1.4-0.2,3.2-0.2,4.6h-2.2v2.3h2.2v11.6
			c0,2.6,0.6,3,1.3,3.7c0.6,0.5,1.9,0.9,3.1,0.9c1.2,0,2.3-0.3,3.3-0.8l-0.4-2c-0.6,0.3-1.1,0.4-1.7,0.4c-1.8,0-2.3-0.7-2.3-2.9
			V12.6H79.2z"/>
		<path class="st0" d="M95,22.4c0-2.6,0.1-5.4,0.1-6.7c0-1.8-0.1-2.4-0.4-3.2c-0.7-1.9-2.6-2.9-5.2-2.9c-3.5,0-5.8,1.4-7.6,2.4
			l1.5,2.4c1.5-1.1,3.6-2.1,5.5-2.1c2.5,0,2.8,1.4,2.8,3.6v1.2c-0.5,0-0.8,0-1.3,0c-5.8,0-9.2,2.2-9.2,6.4c0,3.5,2.2,5.3,5.8,5.3
			c3.1,0,4.6-1.8,5.1-2.4c0.4,1.3,1.3,2.2,2.4,2.6l1.7-2.2C95,25.9,95,24.9,95,22.4z M91.6,24c-0.8,1.4-2.3,2.4-3.8,2.4
			c-1.8,0-2.8-1.2-2.8-3.1c0-1.2,0.3-1.8,0.9-2.6c0.7-0.8,2.2-1.3,4.7-1.3c0.3,0,0.6,0,1.1,0.1L91.6,24z"/>
		<path class="st0" d="M107.1,12.6l0.9-2.3h-4.4c0-1.8,0.2-4.1,0.3-5.4l-3.4,0.8c-0.2,1.4-0.2,3.2-0.2,4.6h-2.2v2.3h2.2v11.6
			c0,2.6,0.6,3,1.3,3.7c0.6,0.5,1.9,0.9,3.1,0.9c1.2,0,2.3-0.3,3.3-0.8l-0.4-2c-0.6,0.3-1.1,0.4-1.7,0.4c-1.8,0-2.3-0.7-2.3-2.9
			V12.6H107.1z"/>
		<path class="st0" d="M112.6,2.3c-1.3,0-2.3,1.1-2.3,2.4c0,1.3,1,2.4,2.3,2.4c1.3,0,2.4-1.1,2.4-2.4C114.9,3.3,113.9,2.3,112.6,2.3
			z"/>
		<polygon class="st0" points="110.8,28.3 114.3,28.3 114.3,9.8 110.8,10.3 		"/>
		<path class="st0" d="M126,9.7c-4.8,0-7.7,3.7-7.7,9.5c0,5.9,3,9.5,7.8,9.5c4.8,0,7.8-3.6,7.8-9.4C133.9,14,131.3,9.7,126,9.7z
			 M126.1,26.2c-2.8,0-4.2-1.8-4.2-7.3c0-4.5,1.2-6.6,4.1-6.6c2.6,0,4.2,1.7,4.2,7.3C130.2,24.3,128.6,26.2,126.1,26.2z"/>
		<path class="st0" d="M150.8,12.4c-0.6-1.5-2.3-2.6-4.2-2.6c-1.1,0-2.3,0.3-3.3,0.9c-0.8,0.4-1.3,0.9-2.3,1.8
			c0-1.1-0.2-1.9-0.6-2.8l-3.1,0.9c0.5,1.3,0.7,2.1,0.7,4.3v13.4h3.3V14.9c1.2-1.3,3.2-2.3,4.5-2.3c0.8,0,1.5,0.3,1.8,0.7
			c0.4,0.6,0.6,1.2,0.6,2.8v12.2h3.3V14.6C151.3,13.8,151.1,13,150.8,12.4z"/>
	</g>
</g>
</svg>
