<?xml version="1.0" encoding="utf-8"?>
<!-- Generator: Adobe Illustrator 19.2.1, SVG Export Plug-In . SVG Version: 6.00 Build 0)  -->
<svg version="1.1" id="Layer_1" xmlns="http://www.w3.org/2000/svg" xmlns:xlink="http://www.w3.org/1999/xlink" x="0px" y="0px"
	 viewBox="0 0 273.6 36.1" style="enable-background:new 0 0 273.6 36.1;" xml:space="preserve">
<style type="text/css">
	.st0{fill:#4F6D83;}
	.st1{fill:#6A6C6C;}
</style>
<g>
	<g>
		<path class="st0" d="M1.6,3.1c1.8-0.3,4.4-0.5,7.3-0.5c3.6,0,6.1,0.5,7.8,1.9C18.2,5.7,19,7.4,19,9.6c0,3.1-2.2,5.2-4.3,5.9v0.1
			c1.7,0.7,2.6,2.3,3.2,4.5c0.8,2.8,1.5,5.9,1.9,6.9h-5.6c-0.4-0.7-1-2.7-1.7-5.7c-0.7-3.1-1.7-3.9-4-3.9H7v9.5H1.6V3.1z M7,13.6
			h2.2c2.7,0,4.4-1.4,4.4-3.5c0-2.2-1.5-3.3-4-3.3C8.1,6.7,7.4,6.8,7,6.9V13.6z"/>
		<path class="st0" d="M26,20c0.1,2.3,2.4,3.3,5,3.3c1.9,0,3.4-0.3,4.9-0.8l0.7,3.7c-1.8,0.8-4,1.1-6.4,1.1c-6,0-9.4-3.5-9.4-9
			c0-4.5,2.8-9.4,8.9-9.4c5.7,0,7.8,4.4,7.8,8.8c0,0.9-0.1,1.8-0.2,2.2H26z M32.5,16.3c0-1.3-0.6-3.6-3.1-3.6
			c-2.3,0-3.2,2.1-3.4,3.6H32.5z"/>
		<path class="st0" d="M39.9,22.3c1,0.6,3.1,1.3,4.7,1.3c1.7,0,2.3-0.5,2.3-1.4c0-0.9-0.5-1.4-2.6-2.1c-3.7-1.2-5.1-3.2-5-5.3
			c0-3.3,2.8-5.8,7.2-5.8c2.1,0,3.9,0.5,4.9,1l-0.9,3.8c-0.8-0.4-2.3-1-3.8-1c-1.3,0-2.1,0.5-2.1,1.4c0,0.9,0.7,1.3,2.8,2.1
			c3.3,1.2,4.7,2.9,4.8,5.4c0,3.3-2.6,5.7-7.6,5.7c-2.3,0-4.4-0.5-5.7-1.3L39.9,22.3z"/>
		<path class="st0" d="M71.3,21.4c0,2.3,0.1,4.2,0.1,5.7h-4.8l-0.3-2.5h-0.1c-0.7,1.1-2.3,2.9-5.5,2.9c-3.6,0-6.2-2.2-6.2-7.7V9.5
			h5.5v9.5c0,2.6,0.8,4.1,2.8,4.1c1.5,0,2.4-1,2.7-1.9c0.1-0.3,0.2-0.7,0.2-1.2V9.5h5.5V21.4z"/>
		<path class="st0" d="M74.7,1.5h5.5v25.6h-5.5V1.5z"/>
		<path class="st0" d="M89.9,4.7v4.8h3.9v4h-3.9v6.4c0,2.1,0.5,3.1,2.2,3.1c0.8,0,1.1,0,1.6-0.1l0,4.1c-0.7,0.3-2,0.5-3.5,0.5
			c-1.8,0-3.2-0.6-4.1-1.5c-1-1-1.5-2.7-1.5-5.2v-7.2h-2.3v-4h2.3V6.2L89.9,4.7z"/>
		<path class="st0" d="M110.7,22.8c0,1.7,0.1,3.3,0.3,4.2h-4.9l-0.3-1.8h-0.1c-1.2,1.4-3,2.2-5,2.2c-3.6,0-5.7-2.6-5.7-5.4
			c0-4.6,4.1-6.7,10.3-6.7v-0.2c0-1-0.5-2.3-3.2-2.3c-1.8,0-3.7,0.6-4.9,1.3l-1-3.5C97.4,9.9,99.8,9,103,9c5.9,0,7.7,3.5,7.7,7.6
			V22.8z M105.4,18.7c-2.9,0-5.1,0.7-5.1,2.8c0,1.4,0.9,2.1,2.2,2.1c1.3,0,2.5-0.9,2.8-2c0.1-0.3,0.1-0.6,0.1-0.9V18.7z"/>
		<path class="st0" d="M131.2,1.5v20.3c0,2,0.1,4.1,0.1,5.3h-4.9l-0.2-2.6h-0.1c-1.1,1.9-3.2,3-5.5,3c-4.2,0-7.5-3.6-7.5-9
			c0-5.9,3.7-9.4,7.9-9.4c2.2,0,3.9,0.8,4.6,2h0.1V1.5H131.2z M125.8,16.9c0-0.3,0-0.7-0.1-1c-0.3-1.4-1.5-2.7-3.2-2.7
			c-2.5,0-3.8,2.2-3.8,5c0,3,1.5,4.9,3.7,4.9c1.6,0,2.9-1.1,3.2-2.6c0.1-0.4,0.1-0.8,0.1-1.3V16.9z"/>
		<path class="st0" d="M152.1,18.1c0,6.4-4.6,9.4-9.3,9.4c-5.1,0-9.1-3.4-9.1-9.1c0-5.7,3.7-9.4,9.4-9.4
			C148.5,9,152.1,12.7,152.1,18.1z M139.4,18.2c0,3,1.3,5.3,3.6,5.3c2.2,0,3.5-2.1,3.5-5.3c0-2.6-1-5.3-3.5-5.3
			C140.4,12.9,139.4,15.6,139.4,18.2z"/>
		<path class="st0" d="M154.6,22.3c1,0.6,3.1,1.3,4.7,1.3c1.7,0,2.3-0.5,2.3-1.4c0-0.9-0.5-1.4-2.6-2.1c-3.7-1.2-5.1-3.2-5-5.3
			c0-3.3,2.8-5.8,7.2-5.8c2.1,0,3.9,0.5,4.9,1l-0.9,3.8c-0.8-0.4-2.3-1-3.8-1c-1.3,0-2.1,0.5-2.1,1.4c0,0.9,0.7,1.3,2.8,2.1
			c3.3,1.2,4.7,2.9,4.8,5.4c0,3.3-2.6,5.7-7.6,5.7c-2.3,0-4.4-0.5-5.7-1.3L154.6,22.3z"/>
	</g>
	<g>
		<path class="st1" d="M169.9,3.2c1.9-0.3,4.2-0.5,6.7-0.5c4.5,0,7.7,1.1,9.8,3c2.2,2,3.5,4.8,3.5,8.7c0,4-1.3,7.2-3.5,9.4
			c-2.3,2.3-6,3.5-10.8,3.5c-2.3,0-4.1-0.1-5.7-0.3V3.2z M173,24.6c0.8,0.1,1.9,0.1,3.2,0.1c6.7,0,10.3-3.7,10.3-10.3
			c0-5.7-3.2-9.4-9.8-9.4c-1.6,0-2.8,0.1-3.7,0.3V24.6z"/>
		<path class="st1" d="M196.4,4.7c0,1.1-0.8,1.9-2,1.9c-1.2,0-1.9-0.9-1.9-1.9c0-1.1,0.8-2,2-2C195.6,2.8,196.4,3.6,196.4,4.7z
			 M192.8,27.1V9.6h3.2v17.4H192.8z"/>
		<path class="st1" d="M215.3,24.5c0,4-0.8,6.4-2.5,8c-1.7,1.5-4.2,2.1-6.4,2.1c-2.1,0-4.4-0.5-5.8-1.4l0.8-2.4
			c1.2,0.8,3,1.4,5.1,1.4c3.2,0,5.6-1.7,5.6-6.1v-1.9H212c-0.9,1.6-2.8,2.9-5.5,2.9c-4.3,0-7.4-3.7-7.4-8.5c0-5.9,3.9-9.2,7.9-9.2
			c3,0,4.6,1.5,5.4,3h0.1l0.1-2.6h2.8c-0.1,1.2-0.1,2.7-0.1,4.8V24.5z M212.1,16.5c0-0.5,0-1-0.2-1.4c-0.6-1.9-2.1-3.4-4.4-3.4
			c-3,0-5.2,2.6-5.2,6.6c0,3.4,1.8,6.3,5.1,6.3c2,0,3.7-1.2,4.4-3.2c0.2-0.5,0.3-1.2,0.3-1.7V16.5z"/>
		<path class="st1" d="M222.9,4.7c0,1.1-0.8,1.9-2,1.9c-1.2,0-1.9-0.9-1.9-1.9c0-1.1,0.8-2,2-2C222.1,2.8,222.9,3.6,222.9,4.7z
			 M219.4,27.1V9.6h3.2v17.4H219.4z"/>
		<path class="st1" d="M230.7,5.5v4.2h4.5V12h-4.5v9.4c0,2.2,0.6,3.4,2.4,3.4c0.9,0,1.4-0.1,1.8-0.2l0.1,2.4
			c-0.6,0.2-1.6,0.4-2.8,0.4c-1.5,0-2.7-0.5-3.4-1.3c-0.9-1-1.2-2.5-1.2-4.6V12h-2.7V9.6h2.7V6.4L230.7,5.5z"/>
		<path class="st1" d="M250.1,22.9c0,1.5,0.1,3,0.3,4.2h-2.8l-0.3-2.2h-0.1c-1,1.4-2.8,2.6-5.3,2.6c-3.5,0-5.3-2.5-5.3-5
			c0-4.2,3.7-6.5,10.5-6.5v-0.4c0-1.4-0.4-4-4-4c-1.7,0-3.3,0.5-4.6,1.3l-0.7-2.1c1.4-0.9,3.6-1.5,5.8-1.5c5.3,0,6.6,3.6,6.6,7.1
			V22.9z M247.1,18.2c-3.5-0.1-7.4,0.5-7.4,3.9c0,2.1,1.4,3,3,3c2.3,0,3.8-1.4,4.3-2.9c0.1-0.4,0.1-0.7,0.1-1V18.2z"/>
		<path class="st1" d="M257.9,4.7c0,1.1-0.8,1.9-2,1.9c-1.2,0-1.9-0.9-1.9-1.9c0-1.1,0.8-2,2-2C257.1,2.8,257.9,3.6,257.9,4.7z
			 M254.3,27.1V9.6h3.2v17.4H254.3z"/>
		<path class="st1" d="M261.4,23.9c1,0.6,2.6,1.2,4.2,1.2c2.3,0,3.3-1.1,3.3-2.6c0-1.5-0.9-2.3-3.2-3.2c-3.2-1.2-4.6-2.8-4.6-4.9
			c0-2.8,2.3-5.1,6-5.1c1.8,0,3.3,0.5,4.2,1.1l-0.8,2.3c-0.7-0.4-1.9-1-3.6-1c-1.9,0-2.9,1.1-2.9,2.4c0,1.4,1,2.1,3.3,3
			c3,1.1,4.6,2.6,4.6,5.2c0,3.1-2.4,5.3-6.5,5.3c-1.9,0-3.7-0.5-4.9-1.2L261.4,23.9z"/>
	</g>
</g>
</svg>
